# xmcd
#
# Track frame offsets: 
#        150
#        20208
#        34597
#        50428
#        66388
#        82984
#        97736
#        113711
#        126841
#        144204
#        157333
#        176600
#        192936
#        208693
#        223990
#        241300
#        257141
#        273742
#        290964
#        308771
#
# Disc length: 4307 seconds
#
# Revision: 0
# Processed by: cddbd v1.5.2PL0 Copyright (c) Steve Scherf et al.
# Submitted via: ExactAudioCopy v1.0b4
#
DISCID=3510d114
DTITLE=T.G. Shepphard - Livin' On The Edge and One For The Money
DYEAR=2013
DGENRE=Country
TTITLE0=Doncha?
TTITLE1=Crazy In The Heart
TTITLE2=Like A Time Bomb
TTITLE3=Fooled Around And Fell In Love
TTITLE4=Love It Out On Me
TTITLE5=In Over My Heart
TTITLE6=You're Mine Tonight
TTITLE7=A Great Work Of Art
TTITLE8=Hunger For You
TTITLE9=Banging My Heart Against The Wall
TTITLE10=One For The Money
TTITLE11=Echoes In My Heart
TTITLE12=So Much For Love
TTITLE13=One Of Those Days
TTITLE14=Walk Of Life
TTITLE15=Let's Do It Again
TTITLE16=Changes
TTITLE17=Everybody Loved Us
TTITLE18=Come To Me
TTITLE19=Some Bridges Never Burn
EXTD=
EXTT0=
EXTT1=
EXTT2=
EXTT3=
EXTT4=
EXTT5=
EXTT6=
EXTT7=
EXTT8=
EXTT9=
EXTT10=
EXTT11=
EXTT12=
EXTT13=
EXTT14=
EXTT15=
EXTT16=
EXTT17=
EXTT18=
EXTT19=
PLAYORDER=
